<svg width="32" height="32" viewBox="0 0 32 32" fill="none" xmlns="http://www.w3.org/2000/svg">
    <rect width="32" height="32" fill="black"/>
    <path d="M16.2937 19.3264H10.3779V15.6018H16.2937C17.208 15.6018 17.9521 15.4533 18.5261 15.1561C19.1002 14.8484 19.5201 14.424 19.7858 13.8828C20.0516 13.3416 20.1845 12.7314 20.1845 12.0523C20.1845 11.3626 20.0516 10.7206 19.7858 10.1263C19.5201 9.53211 19.1002 9.05459 18.5261 8.69381C17.9521 8.33302 17.208 8.15262 16.2937 8.15262H12.0363V27.5874H7.25262V4.41211H16.2937C18.1115 4.41211 19.6689 4.74106 20.9658 5.39897C22.2733 6.04626 23.2726 6.94293 23.9635 8.08896C24.6545 9.23499 25 10.5455 25 12.0205C25 13.5167 24.6545 14.8113 23.9635 15.9042C23.2726 16.9972 22.2733 17.8408 20.9658 18.4351C19.6689 19.0293 18.1115 19.3264 16.2937 19.3264Z" fill="#FFDA7C"/>
</svg>
